<svg xmlns:rdf="http://www.w3.org/1999/02/22-rdf-syntax-ns#" xmlns="http://www.w3.org/2000/svg" height="123.45mm" width="226.13mm" version="1.1" xmlns:cc="http://creativecommons.org/ns#" xmlns:xlink="http://www.w3.org/1999/xlink" viewBox="0 0 801.25108 437.41282" xmlns:dc="http://purl.org/dc/elements/1.1/">
 <defs>
  <linearGradient id="f">
   <stop style="stop-color:#5c3326" offset="0"/>
   <stop style="stop-color:#5c3326;stop-opacity:0" offset="1"/>
  </linearGradient>
  <linearGradient id="l" x1="158.96" gradientUnits="userSpaceOnUse" y1="377.33" gradientTransform="translate(-7.945 -548.89)" x2="839.19" y2="-216.64">
   <stop style="stop-color:#5c3326" offset="0"/>
   <stop style="stop-color:#6b3727" offset=".4063"/>
   <stop style="stop-color:#815138" offset=".79491"/>
   <stop style="stop-color:#5c3326;stop-opacity:0" offset="1"/>
  </linearGradient>
  <linearGradient id="g" x1="158.96" xlink:href="#f" gradientUnits="userSpaceOnUse" y1="377.33" gradientTransform="translate(-7.945 -548.89)" x2="839.19" y2="-216.64"/>
  <linearGradient id="m" x1="377.33" xlink:href="#f" gradientUnits="userSpaceOnUse" y1="-158.96" gradientTransform="translate(-548.89 7.945)" x2="-216.64" y2="-839.19"/>
  <linearGradient id="n" x1="377.33" xlink:href="#f" gradientUnits="userSpaceOnUse" y1="-158.96" gradientTransform="matrix(0 1 -1 0 -7.945 -548.9)" x2="-216.64" y2="-839.19"/>
  <linearGradient id="k" y2="-216.64" xlink:href="#f" gradientUnits="userSpaceOnUse" x2="839.19" gradientTransform="matrix(2.1535 .66590 -2.1535 .66590 1282.6 -436.23)" y1="377.33" x1="158.96"/>
  <linearGradient id="j" y2="-216.64" xlink:href="#f" gradientUnits="userSpaceOnUse" x2="839.19" gradientTransform="matrix(2.1535 .66590 -2.1535 .66590 2010.7 -436.23)" y1="377.33" x1="158.96"/>
  <linearGradient id="i" y2="-216.64" xlink:href="#f" gradientUnits="userSpaceOnUse" x2="839.19" gradientTransform="matrix(2.7733 .033991 -2.7733 .033991 1641.2 392.82)" y1="377.33" x1="158.96"/>
  <linearGradient id="h" y2="-216.64" xlink:href="#f" gradientUnits="userSpaceOnUse" x2="839.19" gradientTransform="matrix(2.7733 .033991 -2.7733 .033991 2369.3 392.82)" y1="377.33" x1="158.96"/>
 </defs>
 <path style="opacity:0.942;color-rendering:auto;fill-rule:evenodd;color:#000000;isolation:auto;mix-blend-mode:normal;shape-rendering:auto;solid-color:#000000;image-rendering:auto;fill:url(#k)" d="m8.176 305.31.0000335 132.11h56.808l-.000031-132.11z"/>
 <path d="m736.27 305.31.00004 132.11h56.808l-.00003-132.11z" style="opacity:0.942;color-rendering:auto;fill-rule:evenodd;color:#000000;isolation:auto;mix-blend-mode:normal;shape-rendering:auto;solid-color:#000000;image-rendering:auto;fill:url(#j)"/>
 <path d="m8.176 290.66h262.61v18.653h-262.61z" style="opacity:0.942;color-rendering:auto;fill-rule:evenodd;color:#000000;isolation:auto;mix-blend-mode:normal;shape-rendering:auto;solid-color:#000000;image-rendering:auto;fill:url(#g)"/>
 <path d="m530.47 290.66h262.61v18.653h-262.61z" style="opacity:0.942;color-rendering:auto;fill-rule:evenodd;color:#000000;isolation:auto;mix-blend-mode:normal;shape-rendering:auto;solid-color:#000000;image-rendering:auto;fill:url(#l)"/>
 <path d="m252.96 303.8 99.197 99.197 13.19-13.19-99.197-99.197z" style="opacity:0.942;color-rendering:auto;fill-rule:evenodd;color:#000000;isolation:auto;mix-blend-mode:normal;shape-rendering:auto;solid-color:#000000;image-rendering:auto;fill:url(#g)"/>
 <path d="m424.69 376.6 121.49-70.143-9.3265-16.154-121.49 70.143z" style="opacity:0.942;color-rendering:auto;fill-rule:evenodd;color:#000000;isolation:auto;mix-blend-mode:normal;shape-rendering:auto;solid-color:#000000;image-rendering:auto;fill:url(#g)"/>
 <circle r="3.2974" cy="300.7" cx="263.18" style="opacity:0.942;color-rendering:auto;fill-rule:evenodd;color:#000000;isolation:auto;mix-blend-mode:normal;shape-rendering:auto;solid-color:#000000;image-rendering:auto;fill:#fff"/>
 <path d="m260.75 302.95 4.8608-4.5012" style="stroke:#000;stroke-width:.5;fill:none"/>
 <circle style="opacity:0.942;color-rendering:auto;fill-rule:evenodd;color:#000000;isolation:auto;mix-blend-mode:normal;shape-rendering:auto;solid-color:#000000;image-rendering:auto;fill:#fff" transform="rotate(90)" cy="-537.18" cx="300.7" r="3.2974"/>
 <path d="m534.93 298.27 4.5012 4.8608" style="stroke:#000;stroke-width:.5;fill:none"/>
 <path d="m208.4 108.04.0717-24.281 67.75-66.091 20.276.05717z" style="opacity:0.942;color-rendering:auto;fill-rule:evenodd;color:#000000;isolation:auto;mix-blend-mode:normal;shape-rendering:auto;solid-color:#000000;image-rendering:auto;fill:url(#n)"/>
 <rect style="opacity:0.942;color-rendering:auto;fill-rule:evenodd;color:#000000;isolation:auto;mix-blend-mode:normal;shape-rendering:auto;solid-color:#000000;image-rendering:auto;fill:url(#g)" height="292" width="23.284" y="-.0045928" x="185.4"/>
 <path d="m393.42 17.925v107.72c0 1.0809-1.2378 1.951-2.7752 1.951-1.5375 0-2.7752-.87017-2.7752-1.951v-107.72z" style="opacity:0.942;stroke-linejoin:round;color-rendering:auto;fill-rule:evenodd;color:#000000;isolation:auto;mix-blend-mode:normal;shape-rendering:auto;solid-color:#000000;stroke:#000;image-rendering:auto;stroke-width:0.3;fill:#bab798"/>
 <rect style="opacity:0.942;color-rendering:auto;fill-rule:evenodd;color:#000000;isolation:auto;mix-blend-mode:normal;shape-rendering:auto;solid-color:#000000;image-rendering:auto;fill:url(#m)" transform="rotate(90)" height="282.15" width="17.971" y="-467.55" x="-.0045928"/>
 <path d="m392.77 121.39c-.12697.59589-.0812 2.1019-.0812 2.1019.17959 4.1534 4.8485 11.497 4.8485 11.497 2.3345 3.431 3.0631 9.0023 3.0631 9.0023.25396 3.2348-1.0279 5.986-1.0279 5.986-3.9431 5.6572-11.874 5.3008-14.905-.4063-2.1328-5.1036-1.0872-8.234.0695-11.626 2.5616-7.0542 5.0783-14.904 5.0783-14.904l.0309-1.8256m3.0782-4.2959c-.15376.7218-.0984 2.546-.0984 2.546.21745 5.031 5.8709 13.926 5.8709 13.926 2.8268 4.156 3.709 10.904 3.709 10.904.30751 3.9183-1.2446 7.2508-1.2446 7.2508-4.7746 6.8526-14.378 6.4208-18.048-.49216-2.5826-6.182-1.3164-9.9737.0842-14.083 3.1018-8.5447 6.1492-18.053 6.1492-18.053l.0373-2.2113" style="fill-opacity:.94510;stroke:#000;stroke-width:0.4;fill:#bab798;fill-rule:evenodd"/>
 <path d="m381.33 152.4s-8.2876 7.0955-9.0954 8.0043c-.80783.9088-1.4137 3.3323-1.8176 3.6352-.40391.30293.20196 1.3127-.80782 2.7264s-.9088 5.2509-1.2117 6.6646c-.30293 1.4137-.80783 9.391-.80783 9.391s0 6.4626.30294 8.1792c.30293 1.7166.30293 4.544.30293 4.544s-.20195 1.6156.30294 2.6254.20196 1.6156.20196 1.6156.40392 2.3225.70685 3.2313c.30293.90881.10101 3.3323.10101 3.8372s.10101 3.1303.10101 3.1303l.10101 6.2607.20196 3.9382 1.1108 3.4333-.60587.20196.40392 3.7362.60587.40392s-.40392.4039-.9088 7.1694c0 0-.5049 11.108.30293 13.531.80782 2.4235.60587 10.401.60587 10.401-.10101.40392.60587 5.3518.60587 5.3518s-.10101 6.6646.10101 7.5734c.20196.9088-.40391 31.909-.40391 31.909l2.5244.20197-2.9284 4.443 3.5342 5.2509h1.5147s.20195 2.7264 1.7166 4.1401c1.5147 1.4137 3.9382 3.0294 4.746 2.9284.80783-.10101 1.9186.80782 3.8372.9088 0 0 2.7264 0 2.7264-.5049 0-.50489.40393-1.4137.40393-1.4137s-3.9382-5.3518-4.3421-8.2802c0 0 1.0439.41566 1.2581.34425.21421-.0714 1.1781-.2499 1.1781-.2499s1.9993 3.1417 2.4634 3.3202c0 0 5.0339 4.4269 8.8896 3.6772 0 0 1.5352-.10705 1.8208-1.6066 0 0-6.0692-6.6761-6.3548-9.675l-.10705-1.9279 1.8922.0714s.77418-17.987.97614-19.602c.20196-1.6156.20196-4.3421.20196-4.3421l-.10101-11.713s.9088-18.984.60587-23.124l3.0294-.5049-.40391 1.1108s.40391 1.7166 1.5147 1.1108c1.1108-.60586 3.5342-2.9284 1.8176-13.632 0 0 .035-2.0261.10648-3.0972.0714-1.071 1.2852-6.212.64263-8.9967-.64263-2.7847-.42843-4.7126-.64263-5.0696-.21422-.35702-.99963-2.9989-1.2138-5.2124-.2142-2.2135-.99963-8.5683-.49981-10.211.49981-1.6422-.35701-4.7839-.0714-6.7832 0 0-1.5527-10.413-1.2498-13.341.30294-2.9284-1.9186-14.339-1.9186-14.339s-1.7166-3.7362-5.4528-6.8665l-.60587-1.0603s.10101-.75734.40392-.9593c.30294-.20195.70684 1.5147.70684 1.5147l.5049-3.0294-1.6662-1.3127s.70686.10101 1.1108-.25244c.40391-.35343.20196-1.0603.20196-1.0603s2.272 1.4642 2.8274 1.3632c.55538-.10101 4.5945-2.575 4.5945-2.575l1.0603.80783 3.1303-4.4935s2.5749-.60587 3.6352-2.1205l1.3127-2.6759.80782 1.1612.50491-2.4235s1.3632 1.0098 1.0603 3.5342c0 0 2.474.101 1.8681-8.8861 0 0-1.6661-9.1385-10.855-11.966 0 0-10.906-1.7166-14.44 11.612l-2.5244 7.1695s-1.8176 3.8372-1.9186 4.544c-.10101.70685-2.4235-.60587-2.4235-.60587-1.1218.49646-1.8102 3.2043-1.8102 3.2043z" style="fill-rule:evenodd"/>
 <path d="m387.21 127.18c-1.3106.15906-1.8398-2.138-.7008-3.0609.58066-.54731 3.1836-1.0946 3.1836-1.0946s4.0314-.88146 4.9657-.70949c1.6694.41697 1.5881 2.8704.34039 3.4866z" style="fill-opacity:.94510;stroke:#000;stroke-width:0.3;fill:#bab798;fill-rule:evenodd"/>
 <path d="m387.21 124.34c-1.3106.15906-1.8398-2.138-.7008-3.0609.58066-.54731 3.1836-1.0946 3.1836-1.0946s4.0314-.88145 4.9657-.70949c1.6694.41697 1.5881 2.8705.34039 3.4866z" style="fill-opacity:.94510;stroke:#000;stroke-width:0.3;fill:#bab798;fill-rule:evenodd"/>
 <path d="m387.21 121.5c-1.3106.15906-1.8398-2.138-.7008-3.0609.58066-.54732 3.1836-1.0946 3.1836-1.0946s4.0314-.88146 4.9657-.70949c1.6694.41698 1.5881 2.8705.34039 3.4866z" style="fill-opacity:.94510;stroke:#000;stroke-width:0.3;fill:#bab798;fill-rule:evenodd"/>
 <path d="m387.21 118.66c-1.3106.15905-1.8398-2.138-.7008-3.0609.58066-.54732 3.1836-1.0946 3.1836-1.0946s4.0314-.88145 4.9657-.70948c1.6694.41697 1.5881 2.8704.34039 3.4866z" style="fill-opacity:.94510;stroke:#000;stroke-width:0.3;fill:#bab798;fill-rule:evenodd"/>
 <path d="m387.21 115.82c-1.3106.15906-1.8398-2.138-.7008-3.0609.58066-.54731 3.1836-1.0946 3.1836-1.0946s4.0314-.88145 4.9657-.70949c1.6694.41697 1.5881 2.8705.34039 3.4866z" style="fill-opacity:.94510;stroke:#000;stroke-width:0.3;fill:#bab798;fill-rule:evenodd"/>
 <path d="m384.02 134.65c-.27667.77866-.5386 1.5477-.81836 2.3184-1.4006 4.1091-2.6665 7.902-.084 14.084 2.6506 4.9928 8.3916 6.5831 13.178 4.5117v-2.6289c-4.0821 2.23-9.2952 1.0162-11.623-3.3672-2.1328-5.1036-1.0864-8.2346.0703-11.627.39731-1.0941.77618-2.1909 1.1621-3.291h-1.8848z" style="fill-opacity:.94510;fill:#bab798;fill-rule:evenodd"/>
 <path d="m0 430.67.0000431 6.7436h73.16l-.00004-6.7436z" style="opacity:0.942;color-rendering:auto;fill-rule:evenodd;color:#000000;isolation:auto;mix-blend-mode:normal;shape-rendering:auto;solid-color:#000000;image-rendering:auto;fill:url(#i)"/>
 <path style="opacity:0.942;color-rendering:auto;fill-rule:evenodd;color:#000000;isolation:auto;mix-blend-mode:normal;shape-rendering:auto;solid-color:#000000;image-rendering:auto;fill:url(#h)" d="m728.09 430.67.00004 6.7436h73.16l-.00004-6.7436z"/>
</svg>
